<svg width="161" height="161" viewBox="0 0 161 161" fill="none" xmlns="http://www.w3.org/2000/svg">
    <g clip-path="url(#clip0_10_90)">
        <path d="M161 76.5014C160.934 65.5476 154.481 56.1233 145.188 51.7461C142.967 50.6974 141.721 48.243 142.209 45.8396C143.994 37.0416 141.452 27.5371 134.591 20.7566C126.798 13.0511 115.575 10.9608 105.903 14.4349C103.594 15.2651 100.973 14.4057 99.6179 12.3592C94.6654 4.86488 86.1515 -0.0584856 76.5014 -0.000220845C65.5403 0.065327 56.1233 6.51814 51.7462 15.8114C50.6974 18.0327 48.243 19.2781 45.8396 18.7902C37.0416 17.0058 27.5372 19.5476 20.7566 26.4083C13.0511 34.2012 10.9609 45.4244 14.4349 55.0964C15.2652 57.4051 14.4058 60.027 12.3592 61.3817C4.86491 66.3342 -0.058455 74.8481 -0.000190327 84.4982C0.0653575 95.452 6.51817 104.876 15.8114 109.253C18.0327 110.302 19.2781 112.757 18.7902 115.16C17.0058 123.958 19.5476 133.462 26.4083 140.243C34.2012 147.948 45.4244 150.039 55.0891 146.565C57.3978 145.734 60.0198 146.594 61.3744 148.64C66.3342 156.127 74.8481 161.051 84.4982 160.993C95.452 160.927 104.876 154.474 109.253 145.181C110.302 142.96 112.757 141.714 115.16 142.202C123.958 143.986 133.462 141.445 140.243 134.584C147.949 126.791 150.039 115.568 146.565 105.896C145.734 103.587 146.594 100.965 148.64 99.6106C156.135 94.6654 161.058 86.1515 161 76.5014ZM134.759 90.4485L118.539 74.4184C116.398 72.299 112.939 72.3209 110.819 74.4621C108.7 76.6033 108.722 80.0628 110.863 82.1822L132.348 103.42C138.874 109.872 138.939 120.389 132.487 126.915C127.949 131.503 121.409 132.887 115.655 131.066C113.39 130.353 111.846 128.255 111.832 125.881L111.701 103.092C111.686 100.077 109.224 97.6442 106.209 97.666C103.194 97.6806 100.761 100.142 100.783 103.157L100.958 133.36C101.009 142.537 93.6167 150.024 84.44 150.075C77.9216 150.112 72.2626 146.39 69.5096 140.942C68.4681 138.888 68.9343 136.39 70.5584 134.752L86.5885 118.532C88.7078 116.391 88.686 112.931 86.5448 110.812C84.4035 108.693 80.9441 108.714 78.8247 110.856L57.5945 132.334C51.1417 138.859 40.6249 138.925 34.0992 132.472C29.5109 127.935 28.1271 121.394 29.9479 115.641C30.6616 113.376 32.7592 111.832 35.1334 111.817L57.9222 111.686C60.9374 111.671 63.37 109.21 63.3481 106.195C63.3336 103.179 60.8719 100.747 57.8567 100.769L27.6537 100.943C18.477 100.994 10.99 93.6021 10.939 84.4254C10.9026 77.907 14.6243 72.248 20.072 69.495C22.1258 68.4536 24.6239 68.9197 26.2626 70.5438L42.4821 86.5739C44.6233 88.6933 48.0828 88.6714 50.2022 86.5302C52.3215 84.389 52.2997 80.9295 50.1585 78.8101L28.6515 57.5799C22.1258 51.1271 22.0603 40.6103 28.5131 34.0846C33.0505 29.4963 39.5907 28.1125 45.3443 29.9333C47.6094 30.647 49.1534 32.7446 49.168 35.1188L49.299 57.9076C49.3136 60.9228 51.7753 63.3554 54.7905 63.3335C57.8057 63.319 60.2383 60.8573 60.2164 57.8421L60.0416 27.6391C59.9906 18.4624 67.383 10.9754 76.5597 10.9244C83.078 10.888 88.737 14.6097 91.49 20.0574C92.5315 22.1112 92.0654 24.6093 90.4412 26.248L74.4111 42.4675C72.2918 44.6087 72.3136 48.0682 74.4548 50.1876C76.5961 52.3069 80.0555 52.2851 82.1749 50.1439L103.42 28.6515C109.873 22.1258 120.389 22.0603 126.915 28.5131C131.503 33.0504 132.887 39.5907 131.066 45.3443C130.353 47.6093 128.255 49.1534 125.881 49.1679L103.092 49.299C100.077 49.3136 97.6442 51.7753 97.6661 54.7905C97.6806 57.8057 100.142 60.2382 103.158 60.2164L133.36 60.0416C142.537 59.9906 150.024 67.3829 150.075 76.5596C150.112 83.078 146.39 88.737 140.942 91.49C138.896 92.5314 136.398 92.0653 134.759 90.4485Z" fill="#475DDD"/>
    </g>
    <defs>
        <clipPath id="clip0_10_90">
            <rect width="161" height="161" fill="white"/>
        </clipPath>
    </defs>
</svg>
