<svg width="814" height="186" viewBox="0 0 814 186" fill="none" xmlns="http://www.w3.org/2000/svg">
    <path d="M507.597 38.5649L465.027 147.435H497.019L522.172 72.5479L547.411 147.435H580.285L536.777 38.5649H507.597Z" fill="#475DDD"/>
    <path d="M222.351 95.6808L180.738 38.5649H154.607V147.435H183.54V88.3546L226.589 147.435H251.284V38.5649H222.351V95.6808Z" fill="#475DDD"/>
    <path d="M302.517 38.5649H272.264V147.435H302.517V38.5649Z" fill="#475DDD"/>
    <path d="M414.746 38.5649L389.059 97.8073L363.538 38.5649H333.728L317.334 147.435H347.587L355.928 84.7599L384.654 147.612H393.473L422.215 84.7346L430.671 147.435H460.794L444.561 38.5649H414.746Z" fill="#475DDD"/>
    <path d="M572.125 65.5711H601.567V147.435H631.553V65.5711H660.99V38.5649H572.125V65.5711Z" fill="#475DDD"/>
    <path d="M725.558 35.8107C690.719 35.8107 665.863 59.7284 665.863 93.0025C665.863 126.277 690.719 150.189 725.558 150.189C760.307 150.189 785.077 126.363 785.077 93.0025C785.077 59.6372 760.307 35.8107 725.558 35.8107ZM725.558 122.282C709.064 122.282 696.948 109.948 696.948 93.0025C696.948 76.0566 709.064 63.7231 725.558 63.7231C742.053 63.7231 753.992 75.9654 753.992 93.0025C753.992 110.04 742.053 122.282 725.558 122.282Z" fill="#475DDD"/>
    <path d="M126.214 110.703C117.203 110.703 108.499 112.348 100.506 115.401L111.301 147.435H144.175L129.525 110.774C128.421 110.728 127.313 110.703 126.214 110.703Z" fill="#475DDD"/>
    <path d="M73.6852 109.412C74.8595 105.923 84.6365 76.7958 86.0627 72.5479L94.4235 97.3567C104.08 95.5137 114.29 95.4783 124.092 97.1744L100.673 38.5649H71.4879L28.9227 147.435C36.709 147.435 53.0074 147.435 60.9147 147.435C72.7982 115.644 109.709 100.536 144.175 108.176C122.424 97.5643 93.6273 98.1516 73.6852 109.412Z" fill="#475DDD"/>
</svg>
