<svg width="104" height="104" viewBox="0 0 104 104" fill="none" xmlns="http://www.w3.org/2000/svg">
    <g filter="url(#filter0_d_10_237)">
        <rect x="18" y="14" width="68" height="68" rx="34" fill="url(#paint0_linear_10_237)"/>
        <path d="M68.3157 32.0008H36.8187C36.586 32.0008 36.3588 31.996 36.1317 32.0103C34.5748 32.1101 33.5166 32.823 33.1787 34.0398C33.0679 34.4533 33.0069 34.8906 33.0069 35.3184C32.9958 43.6124 33.0014 51.9159 33.0014 60.21C33.0014 61.75 34.3255 63 35.971 63H69.0304C70.6703 63 72 61.75 72 60.21V35.4705C71.9945 33.1462 70.7756 32.0008 68.3157 32.0008ZM36.0264 40.4944H68.9473V60.1624H36.0264V40.4944Z" fill="#F2F3FF"/>
        <path d="M49.7333 54.9817C49.8164 54.6727 49.9272 54.2402 50.0546 53.8077C50.8303 51.1602 51.6059 48.5128 52.3927 45.8654C52.4813 45.5659 52.6032 45.2617 52.7749 44.9908C53.0907 44.4917 53.6946 44.3064 54.293 44.4775C54.9301 44.6581 55.3124 45.1287 55.1795 45.699C54.9357 46.7162 54.6365 47.7191 54.3484 48.7267C53.739 50.837 53.1295 52.9426 52.5035 55.0482C52.4314 55.3001 52.3096 55.552 52.1433 55.7659C51.8331 56.1652 51.1793 56.3315 50.6585 56.1889C50.1322 56.0464 49.7222 55.5711 49.7333 54.9817Z" fill="#F2F3FF"/>
        <path d="M59.6727 45.5992C59.8334 45.6895 60.2323 45.8131 60.4317 46.0555C61.5232 47.3911 62.5758 48.7552 63.6174 50.1193C63.7005 50.2334 63.6784 50.4806 63.5897 50.6041C62.6202 51.9112 61.6395 53.2135 60.6312 54.5016C60.1381 55.129 59.4012 55.2573 58.7253 54.8914C58.0715 54.5349 57.9053 53.8837 58.3652 53.2468C58.9857 52.396 59.6284 51.55 60.3154 50.7372C60.5813 50.4188 60.5425 50.2144 60.3043 49.9149C59.6173 49.0594 58.9247 48.2039 58.3153 47.3103C57.7613 46.5023 58.415 45.5897 59.6727 45.5992Z" fill="#F2F3FF"/>
        <path d="M46.9465 53.8363C46.8689 54.3734 46.6473 54.7346 46.1376 54.9295C45.6168 55.1339 45.0904 55.1244 44.7137 54.7299C44.2428 54.2355 43.8328 53.6937 43.4117 53.1614C42.7524 52.3296 42.0986 51.4978 41.4726 50.647C41.3673 50.5044 41.3175 50.2145 41.4172 50.0909C42.4311 48.7505 43.4671 47.4197 44.5198 46.1031C44.819 45.7276 45.2456 45.509 45.8052 45.6231C46.3813 45.7371 46.8301 46.0413 46.8578 46.5451C46.88 46.8921 46.7193 47.2866 46.5032 47.5956C45.9215 48.4273 45.2788 49.2306 44.6417 50.0339C44.4533 50.2715 44.4533 50.4379 44.6528 50.685C45.3231 51.5073 45.9714 52.3486 46.603 53.1946C46.7636 53.4085 46.8523 53.6604 46.9465 53.8363Z" fill="#F2F3FF"/>
    </g>
    <defs>
        <filter id="filter0_d_10_237" x="0" y="0" width="104" height="104" filterUnits="userSpaceOnUse" color-interpolation-filters="sRGB">
            <feFlood flood-opacity="0" result="BackgroundImageFix"/>
            <feColorMatrix in="SourceAlpha" type="matrix" values="0 0 0 0 0 0 0 0 0 0 0 0 0 0 0 0 0 0 127 0" result="hardAlpha"/>
            <feOffset dy="4"/>
            <feGaussianBlur stdDeviation="9"/>
            <feComposite in2="hardAlpha" operator="out"/>
            <feColorMatrix type="matrix" values="0 0 0 0 0 0 0 0 0 0.1 0 0 0 0 1 0 0 0 0.14 0"/>
            <feBlend mode="normal" in2="BackgroundImageFix" result="effect1_dropShadow_10_237"/>
            <feBlend mode="normal" in="SourceGraphic" in2="effect1_dropShadow_10_237" result="shape"/>
        </filter>
        <linearGradient id="paint0_linear_10_237" x1="-14" y1="6.5" x2="108.5" y2="102" gradientUnits="userSpaceOnUse">
            <stop stop-color="#1A75C7"/>
            <stop offset="1" stop-color="#3C55E6"/>
        </linearGradient>
    </defs>
</svg>
