<svg width="315" height="604" viewBox="0 0 315 604" fill="none" xmlns="http://www.w3.org/2000/svg">
    <path d="M300.147 299.087C327.622 236.102 314.578 165.648 272.411 116.917C262.339 105.254 261.437 88.0118 270.346 75.4691C302.949 29.5505 312.538 -31.4191 290.433 -87.7486C265.333 -151.753 206.283 -192.276 141.983 -196.945C126.632 -198.053 113.78 -209.648 111.215 -224.829C101.868 -280.4 65.5592 -330.283 10.0688 -354.485C-52.9583 -381.978 -123.371 -368.915 -172.102 -326.749C-183.764 -316.676 -201.007 -315.775 -213.549 -324.684C-259.468 -357.287 -320.438 -366.875 -376.767 -344.77C-440.771 -319.671 -481.295 -260.621 -485.963 -196.32C-487.072 -180.969 -498.667 -168.118 -513.848 -165.552C-569.419 -156.205 -619.301 -119.897 -643.503 -64.4064C-670.978 -1.42103 -657.934 69.0332 -615.767 117.764C-605.695 129.427 -604.793 146.669 -613.702 159.212C-646.305 205.13 -655.894 266.1 -633.789 322.429C-608.689 386.434 -549.64 426.957 -485.381 431.607C-470.029 432.716 -457.178 444.311 -454.613 459.492C-445.205 515.04 -408.897 564.922 -353.406 589.124C-290.421 616.599 -219.967 603.555 -171.236 561.388C-159.573 551.315 -142.331 550.414 -129.788 559.323C-83.8697 591.926 -22.9 601.514 33.4295 579.409C97.4339 554.31 137.957 495.26 142.626 430.96C143.734 415.608 155.329 402.757 170.51 400.192C226.063 390.886 275.945 354.578 300.147 299.087ZM114.196 312.353L61.9372 179.183C55.0462 161.584 35.151 152.914 17.5524 159.805C-0.0463018 166.696 -8.71694 186.591 -1.82594 204.19L67.391 380.612C88.4081 434.21 62.0443 494.689 8.44614 515.706C-29.2414 530.484 -70.2672 521.79 -98.6343 496.719C-109.809 486.867 -113.331 470.912 -107.378 457.259L-50.1873 326.234C-42.6044 308.905 -50.537 288.696 -67.8843 281.155C-85.2132 273.572 -105.423 281.505 -112.964 298.852L-188.755 472.507C-211.795 525.264 -273.225 549.406 -325.982 526.366C-363.457 510.001 -386.448 474.27 -388.385 436.028C-389.136 421.601 -380.111 408.46 -366.63 403.192L-233.46 350.933C-215.862 344.042 -207.191 324.146 -214.082 306.548C-220.973 288.949 -240.868 280.278 -258.467 287.169L-434.829 356.363C-488.427 377.38 -548.906 351.016 -569.923 297.418C-584.701 259.731 -576.007 218.705 -550.936 190.338C-541.084 179.163 -525.129 175.641 -511.476 181.594L-380.451 238.785C-363.122 246.368 -342.913 238.435 -335.372 221.088C-327.789 203.759 -335.722 183.549 -353.069 176.008L-526.724 100.217C-579.481 77.1773 -603.623 15.7467 -580.583 -37.0103C-564.218 -74.485 -528.487 -97.476 -490.245 -99.4129C-475.818 -100.164 -462.677 -91.1389 -457.409 -77.6582L-405.15 55.5118C-398.259 73.1105 -378.363 81.7811 -360.765 74.8901C-343.166 67.999 -334.495 48.1038 -341.386 30.5051L-410.747 -145.931C-431.764 -199.529 -405.4 -260.008 -351.802 -281.026C-314.115 -295.803 -273.089 -287.109 -244.722 -262.038C-233.547 -252.186 -230.025 -236.231 -235.978 -222.578L-293.169 -91.5534C-300.752 -74.2245 -292.819 -54.015 -275.472 -46.474C-258.143 -38.8912 -237.933 -46.8237 -230.392 -64.1711L-154.601 -237.826C-131.561 -290.583 -70.1308 -314.725 -17.3738 -291.685C20.1009 -275.32 43.0919 -239.589 45.0288 -201.347C45.7795 -186.92 36.7548 -173.779 23.2741 -168.511L-109.896 -116.252C-127.495 -109.361 -136.165 -89.4653 -129.274 -71.8666C-122.383 -54.268 -102.488 -45.5974 -84.8892 -52.4884L91.5933 -121.729C145.192 -142.746 205.671 -116.382 226.688 -62.7837C241.465 -25.0962 232.772 15.9296 207.701 44.2967C197.849 55.4717 181.894 58.9934 168.24 53.0401L37.2158 -4.1503C19.8869 -11.7331 -0.322502 -3.80058 -7.86361 13.5468C-15.4464 30.8757 -7.51392 51.0851 9.83348 58.6262L183.489 134.417C236.246 157.457 260.387 218.888 237.347 271.645C220.983 309.119 185.251 332.11 147.009 334.047C132.624 334.817 119.483 325.792 114.196 312.353Z" fill="url(#paint0_linear_10_226)" fill-opacity="0.15"/>
    <defs>
        <linearGradient id="paint0_linear_10_226" x1="-403" y1="-223" x2="869.5" y2="533.5" gradientUnits="userSpaceOnUse">
            <stop stop-color="#475DDD"/>
            <stop offset="0.841195" stop-color="#475DDD" stop-opacity="0"/>
        </linearGradient>
    </defs>
</svg>
