<svg width="266" height="671" viewBox="0 0 266 671" fill="none" xmlns="http://www.w3.org/2000/svg">
    <path d="M958.147 668.087C985.622 605.102 972.578 534.648 930.411 485.916C920.339 474.254 919.437 457.012 928.346 444.469C960.949 398.55 970.537 337.581 948.432 281.251C923.333 217.247 864.283 176.724 799.983 172.055C784.631 170.947 771.78 159.352 769.215 144.17C759.867 88.5993 723.559 38.717 668.069 14.5151C605.041 -12.9783 534.629 0.0843573 485.898 42.2508C474.235 52.3234 456.993 53.2252 444.45 44.3159C398.532 11.7133 337.562 2.12445 281.233 24.2296C217.228 49.3292 176.705 108.379 172.037 172.679C170.928 188.031 159.333 200.882 144.152 203.447C88.5808 212.795 38.6985 249.103 14.4965 304.593C-12.9784 367.579 0.0658192 438.033 42.2323 486.764C52.3049 498.427 53.2067 515.669 44.2973 528.212C11.6947 574.13 2.10592 635.1 24.2111 691.429C49.3107 755.434 108.36 795.957 172.619 800.607C187.97 801.716 200.822 813.31 203.387 828.491C212.795 884.039 249.103 933.922 304.593 958.124C367.579 985.599 438.033 972.554 486.764 930.388C498.427 920.315 515.669 919.414 528.212 928.323C574.13 960.925 635.1 970.514 691.429 948.409C755.434 923.309 795.957 864.26 800.625 799.959C801.734 784.608 813.329 771.757 828.51 769.191C884.063 759.886 933.945 723.578 958.147 668.087ZM772.196 681.353L719.937 548.183C713.046 530.584 693.151 521.913 675.552 528.804C657.953 535.695 649.283 555.591 656.174 573.189L725.391 749.612C746.408 803.21 720.044 863.689 666.446 884.706C628.758 899.483 587.733 890.79 559.365 865.719C548.19 855.867 544.669 839.912 550.622 826.259L607.812 695.234C615.395 677.905 607.463 657.696 590.115 650.155C572.787 642.572 552.577 650.504 545.036 667.852L469.245 841.507C446.205 894.264 384.774 918.406 332.017 895.366C294.543 879.001 271.552 843.269 269.615 805.027C268.864 790.601 277.889 777.46 291.37 772.191L424.54 719.932C442.138 713.041 450.809 693.146 443.918 675.547C437.027 657.949 417.132 649.278 399.533 656.169L223.171 725.363C169.573 746.38 109.093 720.016 88.0763 666.418C73.2992 628.73 81.9923 587.705 107.063 559.338C116.916 548.162 132.871 544.641 146.524 550.594L277.548 607.785C294.877 615.367 315.087 607.435 322.628 590.087C330.211 572.759 322.278 552.549 304.931 545.008L131.275 469.217C78.5184 446.177 54.3768 384.746 77.4169 331.989C93.7814 294.515 129.513 271.524 167.755 269.587C182.182 268.836 195.323 277.861 200.591 291.342L252.85 424.512C259.741 442.11 279.637 450.781 297.235 443.89C314.834 436.999 323.504 417.104 316.613 399.505L247.253 223.069C226.236 169.471 252.599 108.991 306.198 87.9743C343.885 73.1972 384.911 81.8903 413.278 106.961C424.453 116.814 427.975 132.768 422.021 146.422L364.831 277.446C357.248 294.775 365.181 314.985 382.528 322.526C399.857 330.109 420.066 322.176 427.607 304.829L503.398 131.173C526.438 78.4164 587.869 54.2748 640.626 77.3148C678.101 93.6794 701.092 129.411 703.029 167.653C703.779 182.08 694.755 195.221 681.274 200.489L548.104 252.748C530.505 259.639 521.835 279.534 528.726 297.133C535.617 314.732 555.512 323.402 573.111 316.511L749.593 247.271C803.191 226.254 863.671 252.618 884.688 306.216C899.465 343.904 890.772 384.929 865.701 413.296C855.848 424.471 839.893 427.993 826.24 422.04L695.216 364.849C677.887 357.267 657.677 365.199 650.136 382.547C642.553 399.875 650.486 420.085 667.833 427.626L841.489 503.417C894.246 526.457 918.387 587.888 895.347 640.645C878.983 678.119 843.251 701.11 805.009 703.047C790.624 703.816 777.483 694.792 772.196 681.353Z" fill="url(#paint0_linear_10_224)" fill-opacity="0.15"/>
    <defs>
        <linearGradient id="paint0_linear_10_224" x1="800.5" y1="1183.5" x2="-419.5" y2="-162" gradientUnits="userSpaceOnUse">
            <stop stop-color="#475DDD"/>
            <stop offset="1" stop-color="#475DDD" stop-opacity="0"/>
        </linearGradient>
    </defs>
</svg>
