<svg width="68" height="68" viewBox="0 0 68 68" fill="none" xmlns="http://www.w3.org/2000/svg">
    <rect width="68" height="68" rx="34" fill="url(#paint0_linear_10_232)"/>
    <g clip-path="url(#clip0_10_232)">
        <path d="M39.1531 33.9513C38.1883 33.7841 37.2234 33.6168 36.2586 33.4534C34.5506 33.1655 32.8427 32.8815 31.1348 32.6013C29.2012 32.2862 27.2715 31.9672 25.3379 31.6637C23.8478 31.4303 23.0192 30.4927 23.0153 28.9754C23.0114 26.8667 23.0075 24.762 23.0153 22.6533C23.0192 21.2449 23.6766 20.354 24.8944 20.0544C25.4818 19.9105 26.0226 20.0661 26.5323 20.3346C28.9522 21.6068 31.3721 22.8828 33.7881 24.1628C39.1609 27.0185 44.5337 29.878 49.9026 32.7375C50.4239 33.0137 50.9802 33.2861 50.9997 33.9786C51.0192 34.6944 50.49 35.0018 49.9376 35.2858C47.3543 36.6319 44.771 37.978 42.1994 39.3475C38.2116 41.4678 34.2394 43.6115 30.2516 45.7318C29.0378 46.3776 27.7889 46.9573 26.5906 47.6304C24.6298 48.7392 22.9413 47.1518 22.9997 45.3972C23.0658 43.3586 23.0153 41.3122 23.0153 39.2697C23.0153 37.4334 23.7934 36.6047 25.6025 36.3284C28.1624 35.9355 30.7068 35.4648 33.259 35.0368C35.2198 34.7061 37.1845 34.3949 39.1492 34.072C39.1531 34.033 39.1531 33.9903 39.1531 33.9513Z" fill="#F2F3FF"/>
    </g>
    <defs>
        <linearGradient id="paint0_linear_10_232" x1="-32" y1="-7.5" x2="90.5" y2="88" gradientUnits="userSpaceOnUse">
            <stop stop-color="#1A75C7"/>
            <stop offset="1" stop-color="#3C55E6"/>
        </linearGradient>
        <clipPath id="clip0_10_232">
            <rect width="28" height="28" fill="white" transform="translate(23 20)"/>
        </clipPath>
    </defs>
</svg>
